<svg width="19" height="19" viewBox="0 0 19 19" fill="none" xmlns="http://www.w3.org/2000/svg">
<path fill-rule="evenodd" clip-rule="evenodd" d="M13.6519 0.020752H4.65186C2.17708 0.020752 0.151855 2.07319 0.151855 4.58325V13.7083C0.151855 16.2174 2.17708 18.2708 4.65186 18.2708H13.6519C16.1266 18.2708 18.1519 16.2174 18.1519 13.7083V4.58325C18.1519 2.07319 16.1266 0.020752 13.6519 0.020752ZM9.15186 12.9477C7.08051 12.9477 5.40178 11.245 5.40178 9.14575C5.40178 7.04563 7.08051 5.34359 9.15186 5.34359C11.2223 5.34359 12.9019 7.04563 12.9019 9.14575C12.9019 11.245 11.2223 12.9477 9.15186 12.9477ZM12.9019 4.20297C12.9019 4.83282 13.405 5.34359 14.0269 5.34359C14.6488 5.34359 15.1519 4.83282 15.1519 4.20297C15.1519 3.57311 14.6488 3.06234 14.0269 3.06234C13.405 3.06234 12.9019 3.57311 12.9019 4.20297Z" fill="#F8CF35"/>
</svg>
