<svg width="21" height="19" viewBox="0 0 21 19" fill="none" xmlns="http://www.w3.org/2000/svg">
<path fill-rule="evenodd" clip-rule="evenodd" d="M2.10949 0.020752C1.31929 0.020752 0.678711 0.600718 0.678711 1.31615V16.9754C0.678711 17.6908 1.31929 18.2708 2.10949 18.2708H19.4053C20.1955 18.2708 20.8361 17.6908 20.8361 16.9754V1.31615C20.8361 0.60072 20.1955 0.020752 19.4053 0.020752H2.10949ZM5.20312 5.68831C6.16888 5.68831 6.95177 4.9795 6.95177 4.10512C6.95177 3.23075 6.16888 2.52194 5.20312 2.52194C4.23737 2.52194 3.45447 3.23075 3.45447 4.10512C3.45447 4.9795 4.23737 5.68831 5.20312 5.68831ZM8.55324 6.85833H11.4513V8.06034C11.4513 8.06034 12.2378 6.6363 14.3775 6.6363C16.2863 6.6363 17.8675 7.48763 17.8675 10.0826V15.5545H14.8643V10.7456C14.8643 9.21485 13.9616 9.04649 13.2738 9.04649C11.8463 9.04649 11.6019 10.1613 11.6019 10.9453V15.5545H8.55324V6.85833ZM6.72747 6.85834H3.67878V15.5545H6.72747V6.85834Z" fill="#F8CF35"/>
</svg>
