<svg width="17" height="19" viewBox="0 0 17 19" fill="none" xmlns="http://www.w3.org/2000/svg">
<path d="M6.08105 15.1442C7.58406 15.1442 8.80248 14.0541 8.80248 12.3871V0.020752H12.0662C11.8832 2.27603 14.0961 4.45457 16.5366 4.40474V7.51405C14.4495 7.51405 12.6747 6.61996 12.057 6.12377V12.3871C12.057 15.1442 9.91606 18.2708 6.08105 18.2708C2.24604 18.2708 0.151855 15.1442 0.151855 12.3871C0.151855 8.49561 4.21666 6.23871 6.90886 6.79033V9.95735C6.77343 9.90881 6.42416 9.83704 6.12667 9.83704C4.61118 9.78044 3.35962 11.0257 3.35962 12.3871C3.35962 13.9098 4.57805 15.1442 6.08105 15.1442Z" fill="#F8CF35"/>
</svg>
