<svg width="372" height="142" viewBox="0 0 372 142" fill="none" xmlns="http://www.w3.org/2000/svg">
<g filter="url(#filter0_di_721_611)">
<path d="M45.8954 58.5854V93.3454H40.1204L14.5454 66.1204V86.0304L23.6204 89.0004L21.4204 93.4004H3.60039V89.4954L8.77039 84.9854V58.1454L2.50039 54.5704L4.70039 50.1704H15.2054L40.1204 76.6254V57.4854L31.1004 54.5704L33.3004 50.1704H51.1204V54.0204L45.8954 58.5854ZM101.889 93.4004H79.1188V89.4954L85.6638 86.0854L82.8588 79.1554H66.7988L64.5438 84.7654L72.2438 89.0004L70.0438 93.4004H51.6738V89.4954L58.1088 84.7104L71.3088 51.9304L83.0788 49.1254L98.3688 86.4154L104.089 89.0004L101.889 93.4004ZM74.7188 59.1904L68.8338 73.9304H80.7138L74.7188 59.1904ZM141.845 58.8604L128.645 91.6404L116.875 94.4454L101.585 57.1554L95.865 54.5704L98.065 50.1704H120.835V54.0754L114.29 57.4854L125.18 84.3804L135.41 58.8054L127.71 54.5704L129.91 50.1704H148.28V54.0754L141.845 58.8604ZM171.62 93.4004H150.5V89.4954L155.67 84.9854V56.2754L149.4 54.6254L151.6 50.2254H172.72V54.1304L167.495 58.6954V87.3504L173.82 89.0004L171.62 93.4004ZM220.15 65.1304L216.3 66.7804L208.325 55.3954H204.2V87.5154L210.525 89.0004L208.325 93.4004H187.205V89.4954L192.375 85.4254V55.3954H188.415L180.44 66.7804L176.59 65.1304V49.1804L181.155 50.1704H215.585L220.15 49.1804V65.1304ZM259.781 93.4004H223.976V89.4954L229.146 85.4254V56.2754L222.876 54.5704L225.076 50.1704H259.231L263.796 49.1804V64.0304L259.946 65.6804L253.016 55.3954H240.971V68.7054H246.306L250.321 63.0404H254.226V78.6604L249.826 80.8604L246.141 73.9304H240.971V88.1754H252.521L260.496 76.7904L264.346 78.4404V94.3904L259.781 93.4004ZM313.308 93.4004H300.328L290.648 74.7004L288.338 73.3804L289.988 70.0804H292.243C293.893 70.0804 295.195 69.4937 296.148 68.3204C297.102 67.1104 297.578 65.4237 297.578 63.2604C297.578 60.8771 296.955 58.9704 295.708 57.5404C294.498 56.0737 292.702 55.3404 290.318 55.3404C288.888 55.3404 287.55 55.7621 286.303 56.6054V87.2954L292.628 88.9454L290.428 93.3454H269.308V89.4404L274.478 84.9304V56.2204L268.208 54.5704L270.408 50.1704H281.188C284.268 50.1704 287.312 50.0604 290.318 49.8404C292.518 49.6937 294.132 49.6204 295.158 49.6204C298.165 49.6204 300.823 50.1337 303.133 51.1604C305.48 52.1504 307.295 53.5254 308.578 55.2854C309.862 57.0454 310.503 59.0254 310.503 61.2254C310.503 63.7187 309.403 66.0287 307.203 68.1554C305.04 70.2821 302.327 71.9504 299.063 73.1604L303.958 74.4804L310.283 86.6354L315.508 89.0004L313.308 93.4004ZM365.18 93.4004H342.41V89.4954L348.955 86.0854L346.15 79.1554H330.09L327.835 84.7654L335.535 89.0004L333.335 93.4004H314.965V89.4954L321.4 84.7104L334.6 51.9304L346.37 49.1254L361.66 86.4154L367.38 89.0004L365.18 93.4004ZM338.01 59.1904L332.125 73.9304H344.005L338.01 59.1904Z" fill="url(#paint0_linear_721_611)" shape-rendering="crispEdges"/>
<path d="M45.8954 58.5854L45.6158 58.2653L45.4704 58.3923V58.5854H45.8954ZM45.8954 93.3454V93.7704H46.3204V93.3454H45.8954ZM40.1204 93.3454L39.8106 93.6364L39.9365 93.7704H40.1204V93.3454ZM14.5454 66.1204L14.8552 65.8294L14.1204 65.0472V66.1204H14.5454ZM14.5454 86.0304H14.1204V86.3385L14.4132 86.4343L14.5454 86.0304ZM23.6204 89.0004L24.0005 89.1905L24.2209 88.7497L23.7526 88.5965L23.6204 89.0004ZM21.4204 93.4004V93.8254H21.6831L21.8005 93.5905L21.4204 93.4004ZM3.60039 93.4004H3.17539V93.8254H3.60039V93.4004ZM3.60039 89.4954L3.32101 89.1751L3.17539 89.3022V89.4954H3.60039ZM8.77039 84.9854L9.04977 85.3057L9.19539 85.1786V84.9854H8.77039ZM8.77039 58.1454H9.19539V57.8985L8.9809 57.7762L8.77039 58.1454ZM2.50039 54.5704L2.12026 54.3803L1.94029 54.7403L2.28988 54.9396L2.50039 54.5704ZM4.70039 50.1704V49.7454H4.43773L4.32026 49.9803L4.70039 50.1704ZM15.2054 50.1704L15.5148 49.879L15.3889 49.7454H15.2054V50.1704ZM40.1204 76.6254L39.811 76.9168L40.5454 77.6966V76.6254H40.1204ZM40.1204 57.4854H40.5454V57.1761L40.2511 57.081L40.1204 57.4854ZM31.1004 54.5704L30.7203 54.3803L30.4991 54.8227L30.9697 54.9748L31.1004 54.5704ZM33.3004 50.1704V49.7454H33.0377L32.9203 49.9803L33.3004 50.1704ZM51.1204 50.1704H51.5454V49.7454H51.1204V50.1704ZM51.1204 54.0204L51.4 54.3404L51.5454 54.2134V54.0204H51.1204ZM45.8954 58.5854H45.4704V93.3454H45.8954H46.3204V58.5854H45.8954ZM45.8954 93.3454V92.9204H40.1204V93.3454V93.7704H45.8954V93.3454ZM40.1204 93.3454L40.4302 93.0544L14.8552 65.8294L14.5454 66.1204L14.2356 66.4114L39.8106 93.6364L40.1204 93.3454ZM14.5454 66.1204H14.1204V86.0304H14.5454H14.9704V66.1204H14.5454ZM14.5454 86.0304L14.4132 86.4343L23.4882 89.4043L23.6204 89.0004L23.7526 88.5965L14.6776 85.6265L14.5454 86.0304ZM23.6204 89.0004L23.2403 88.8103L21.0403 93.2103L21.4204 93.4004L21.8005 93.5905L24.0005 89.1905L23.6204 89.0004ZM21.4204 93.4004V92.9754H3.60039V93.4004V93.8254H21.4204V93.4004ZM3.60039 93.4004H4.02539V89.4954H3.60039H3.17539V93.4004H3.60039ZM3.60039 89.4954L3.87977 89.8157L9.04977 85.3057L8.77039 84.9854L8.49101 84.6651L3.32101 89.1751L3.60039 89.4954ZM8.77039 84.9854H9.19539V58.1454H8.77039H8.34539V84.9854H8.77039ZM8.77039 58.1454L8.9809 57.7762L2.7109 54.2012L2.50039 54.5704L2.28988 54.9396L8.55988 58.5146L8.77039 58.1454ZM2.50039 54.5704L2.88052 54.7605L5.08052 50.3605L4.70039 50.1704L4.32026 49.9803L2.12026 54.3803L2.50039 54.5704ZM4.70039 50.1704V50.5954H15.2054V50.1704V49.7454H4.70039V50.1704ZM15.2054 50.1704L14.896 50.4618L39.811 76.9168L40.1204 76.6254L40.4298 76.334L15.5148 49.879L15.2054 50.1704ZM40.1204 76.6254H40.5454V57.4854H40.1204H39.6954V76.6254H40.1204ZM40.1204 57.4854L40.2511 57.081L31.2311 54.166L31.1004 54.5704L30.9697 54.9748L39.9897 57.8898L40.1204 57.4854ZM31.1004 54.5704L31.4805 54.7605L33.6805 50.3605L33.3004 50.1704L32.9203 49.9803L30.7203 54.3803L31.1004 54.5704ZM33.3004 50.1704V50.5954H51.1204V50.1704V49.7454H33.3004V50.1704ZM51.1204 50.1704H50.6954V54.0204H51.1204H51.5454V50.1704H51.1204ZM51.1204 54.0204L50.8408 53.7003L45.6158 58.2653L45.8954 58.5854L46.175 58.9054L51.4 54.3404L51.1204 54.0204ZM101.889 93.4004V93.8254H102.151L102.269 93.5905L101.889 93.4004ZM79.1188 93.4004H78.6938V93.8254H79.1188V93.4004ZM79.1188 89.4954L78.9225 89.1185L78.6938 89.2376V89.4954H79.1188ZM85.6638 86.0854L85.8602 86.4623L86.2027 86.2839L86.0578 85.9259L85.6638 86.0854ZM82.8588 79.1554L83.2528 78.9959L83.1453 78.7304H82.8588V79.1554ZM66.7988 79.1554V78.7304H66.5116L66.4045 78.9969L66.7988 79.1554ZM64.5438 84.7654L64.1495 84.6069L64.009 84.9563L64.339 85.1378L64.5438 84.7654ZM72.2438 89.0004L72.624 89.1905L72.8067 88.8249L72.4486 88.628L72.2438 89.0004ZM70.0438 93.4004V93.8254H70.3065L70.424 93.5905L70.0438 93.4004ZM51.6738 93.4004H51.2488V93.8254H51.6738V93.4004ZM51.6738 89.4954L51.4202 89.1543L51.2488 89.2818V89.4954H51.6738ZM58.1088 84.7104L58.3624 85.0514L58.4584 84.9801L58.5031 84.8691L58.1088 84.7104ZM71.3088 51.9304L71.2103 51.517L70.9966 51.5679L70.9146 51.7716L71.3088 51.9304ZM83.0788 49.1254L83.4721 48.9642L83.3341 48.6277L82.9803 48.712L83.0788 49.1254ZM98.3688 86.4154L97.9756 86.5766L98.0397 86.7331L98.1938 86.8027L98.3688 86.4154ZM104.089 89.0004L104.469 89.1905L104.667 88.7951L104.264 88.6131L104.089 89.0004ZM74.7188 59.1904L75.1125 59.0303L74.7152 58.0533L74.3241 59.0328L74.7188 59.1904ZM68.8338 73.9304L68.4391 73.7728L68.2065 74.3554H68.8338V73.9304ZM80.7138 73.9304V74.3554H81.3455L81.1075 73.7703L80.7138 73.9304ZM101.889 93.4004V92.9754H79.1188V93.4004V93.8254H101.889V93.4004ZM79.1188 93.4004H79.5438V89.4954H79.1188H78.6938V93.4004H79.1188ZM79.1188 89.4954L79.3152 89.8723L85.8602 86.4623L85.6638 86.0854L85.4675 85.7085L78.9225 89.1185L79.1188 89.4954ZM85.6638 86.0854L86.0578 85.9259L83.2528 78.9959L82.8588 79.1554L82.4649 79.3148L85.2699 86.2449L85.6638 86.0854ZM82.8588 79.1554V78.7304H66.7988V79.1554V79.5804H82.8588V79.1554ZM66.7988 79.1554L66.4045 78.9969L64.1495 84.6069L64.5438 84.7654L64.9382 84.9239L67.1932 79.3139L66.7988 79.1554ZM64.5438 84.7654L64.339 85.1378L72.039 89.3728L72.2438 89.0004L72.4486 88.628L64.7486 84.393L64.5438 84.7654ZM72.2438 89.0004L71.8637 88.8103L69.6637 93.2103L70.0438 93.4004L70.424 93.5905L72.624 89.1905L72.2438 89.0004ZM70.0438 93.4004V92.9754H51.6738V93.4004V93.8254H70.0438V93.4004ZM51.6738 93.4004H52.0988V89.4954H51.6738H51.2488V93.4004H51.6738ZM51.6738 89.4954L51.9274 89.8364L58.3624 85.0514L58.1088 84.7104L57.8552 84.3693L51.4202 89.1543L51.6738 89.4954ZM58.1088 84.7104L58.5031 84.8691L71.7031 52.0891L71.3088 51.9304L70.9146 51.7716L57.7146 84.5516L58.1088 84.7104ZM71.3088 51.9304L71.4074 52.3438L83.1774 49.5388L83.0788 49.1254L82.9803 48.712L71.2103 51.517L71.3088 51.9304ZM83.0788 49.1254L82.6856 49.2866L97.9756 86.5766L98.3688 86.4154L98.7621 86.2542L83.4721 48.9642L83.0788 49.1254ZM98.3688 86.4154L98.1938 86.8027L103.914 89.3877L104.089 89.0004L104.264 88.6131L98.5439 86.0281L98.3688 86.4154ZM104.089 89.0004L103.709 88.8103L101.509 93.2103L101.889 93.4004L102.269 93.5905L104.469 89.1905L104.089 89.0004ZM74.7188 59.1904L74.3241 59.0328L68.4391 73.7728L68.8338 73.9304L69.2285 74.088L75.1135 59.348L74.7188 59.1904ZM68.8338 73.9304V74.3554H80.7138V73.9304V73.5054H68.8338V73.9304ZM80.7138 73.9304L81.1075 73.7703L75.1125 59.0303L74.7188 59.1904L74.3251 59.3505L80.3201 74.0905L80.7138 73.9304ZM141.845 58.8604L141.591 58.5193L141.495 58.5907L141.451 58.7016L141.845 58.8604ZM128.645 91.6404L128.744 92.0538L128.957 92.0029L129.039 91.7991L128.645 91.6404ZM116.875 94.4454L116.482 94.6066L116.62 94.9431L116.974 94.8588L116.875 94.4454ZM101.585 57.1554L101.978 56.9942L101.914 56.8377L101.76 56.7681L101.585 57.1554ZM95.865 54.5704L95.4849 54.3803L95.2872 54.7757L95.69 54.9577L95.865 54.5704ZM98.065 50.1704V49.7454H97.8024L97.6849 49.9803L98.065 50.1704ZM120.835 50.1704H121.26V49.7454H120.835V50.1704ZM120.835 54.0754L121.031 54.4523L121.26 54.3332V54.0754H120.835ZM114.29 57.4854L114.094 57.1085L113.751 57.2869L113.896 57.6449L114.29 57.4854ZM125.18 84.3804L124.786 84.5399L125.182 85.5187L125.575 84.5382L125.18 84.3804ZM135.41 58.8054L135.805 58.9632L135.944 58.6142L135.615 58.433L135.41 58.8054ZM127.71 54.5704L127.33 54.3803L127.147 54.7458L127.505 54.9428L127.71 54.5704ZM129.91 50.1704V49.7454H129.647L129.53 49.9803L129.91 50.1704ZM148.28 50.1704H148.705V49.7454H148.28V50.1704ZM148.28 54.0754L148.534 54.4164L148.705 54.289V54.0754H148.28ZM141.845 58.8604L141.451 58.7016L128.251 91.4816L128.645 91.6404L129.039 91.7991L142.239 59.0191L141.845 58.8604ZM128.645 91.6404L128.547 91.227L116.777 94.032L116.875 94.4454L116.974 94.8588L128.744 92.0538L128.645 91.6404ZM116.875 94.4454L117.268 94.2842L101.978 56.9942L101.585 57.1554L101.192 57.3166L116.482 94.6066L116.875 94.4454ZM101.585 57.1554L101.76 56.7681L96.0401 54.1831L95.865 54.5704L95.69 54.9577L101.41 57.5427L101.585 57.1554ZM95.865 54.5704L96.2452 54.7605L98.4452 50.3605L98.065 50.1704L97.6849 49.9803L95.4849 54.3803L95.865 54.5704ZM98.065 50.1704V50.5954H120.835V50.1704V49.7454H98.065V50.1704ZM120.835 50.1704H120.41V54.0754H120.835H121.26V50.1704H120.835ZM120.835 54.0754L120.639 53.6985L114.094 57.1085L114.29 57.4854L114.486 57.8623L121.031 54.4523L120.835 54.0754ZM114.29 57.4854L113.896 57.6449L124.786 84.5399L125.18 84.3804L125.574 84.2209L114.684 57.3259L114.29 57.4854ZM125.18 84.3804L125.575 84.5382L135.805 58.9632L135.41 58.8054L135.015 58.6475L124.785 84.2225L125.18 84.3804ZM135.41 58.8054L135.615 58.433L127.915 54.198L127.71 54.5704L127.505 54.9428L135.205 59.1778L135.41 58.8054ZM127.71 54.5704L128.09 54.7605L130.29 50.3605L129.91 50.1704L129.53 49.9803L127.33 54.3803L127.71 54.5704ZM129.91 50.1704V50.5954H148.28V50.1704V49.7454H129.91V50.1704ZM148.28 50.1704H147.855V54.0754H148.28H148.705V50.1704H148.28ZM148.28 54.0754L148.026 53.7343L141.591 58.5193L141.845 58.8604L142.099 59.2014L148.534 54.4164L148.28 54.0754ZM171.62 93.4004V93.8254H171.882L172 93.5905L171.62 93.4004ZM150.5 93.4004H150.075V93.8254H150.5V93.4004ZM150.5 89.4954L150.22 89.1751L150.075 89.3022V89.4954H150.5ZM155.67 84.9854L155.949 85.3057L156.095 85.1786V84.9854H155.67ZM155.67 56.2754H156.095V55.9478L155.778 55.8644L155.67 56.2754ZM149.4 54.6254L149.02 54.4353L148.786 54.9033L149.292 55.0364L149.4 54.6254ZM151.6 50.2254V49.8004H151.337L151.22 50.0353L151.6 50.2254ZM172.72 50.2254H173.145V49.8004H172.72V50.2254ZM172.72 54.1304L172.999 54.4504L173.145 54.3234V54.1304H172.72ZM167.495 58.6954L167.215 58.3753L167.07 58.5023V58.6954H167.495ZM167.495 87.3504H167.07V87.6787L167.388 87.7616L167.495 87.3504ZM173.82 89.0004L174.2 89.1905L174.434 88.7215L173.927 88.5891L173.82 89.0004ZM171.62 93.4004V92.9754H150.5V93.4004V93.8254H171.62V93.4004ZM150.5 93.4004H150.925V89.4954H150.5H150.075V93.4004H150.5ZM150.5 89.4954L150.779 89.8157L155.949 85.3057L155.67 84.9854L155.39 84.6651L150.22 89.1751L150.5 89.4954ZM155.67 84.9854H156.095V56.2754H155.67H155.245V84.9854H155.67ZM155.67 56.2754L155.778 55.8644L149.508 54.2144L149.4 54.6254L149.292 55.0364L155.562 56.6864L155.67 56.2754ZM149.4 54.6254L149.78 54.8155L151.98 50.4155L151.6 50.2254L151.22 50.0353L149.02 54.4353L149.4 54.6254ZM151.6 50.2254V50.6504H172.72V50.2254V49.8004H151.6V50.2254ZM172.72 50.2254H172.295V54.1304H172.72H173.145V50.2254H172.72ZM172.72 54.1304L172.44 53.8103L167.215 58.3753L167.495 58.6954L167.774 59.0154L172.999 54.4504L172.72 54.1304ZM167.495 58.6954H167.07V87.3504H167.495H167.92V58.6954H167.495ZM167.495 87.3504L167.388 87.7616L173.713 89.4116L173.82 89.0004L173.927 88.5891L167.602 86.9392L167.495 87.3504ZM173.82 89.0004L173.44 88.8103L171.24 93.2103L171.62 93.4004L172 93.5905L174.2 89.1905L173.82 89.0004ZM220.15 65.1304L220.318 65.521L220.575 65.4106V65.1304H220.15ZM216.3 66.7804L215.952 67.0242L216.15 67.3071L216.468 67.171L216.3 66.7804ZM208.325 55.3954L208.674 55.1516L208.547 54.9704H208.325V55.3954ZM204.2 55.3954V54.9704H203.775V55.3954H204.2ZM204.2 87.5154H203.775V87.8522L204.103 87.9291L204.2 87.5154ZM210.525 89.0004L210.906 89.1905L211.146 88.7095L210.623 88.5866L210.525 89.0004ZM208.325 93.4004V93.8254H208.588L208.706 93.5905L208.325 93.4004ZM187.205 93.4004H186.78V93.8254H187.205V93.4004ZM187.205 89.4954L186.943 89.1615L186.78 89.2891V89.4954H187.205ZM192.375 85.4254L192.638 85.7593L192.8 85.6317V85.4254H192.375ZM192.375 55.3954H192.8V54.9704H192.375V55.3954ZM188.415 55.3954V54.9704H188.194L188.067 55.1516L188.415 55.3954ZM180.44 66.7804L180.273 67.171L180.59 67.3071L180.789 67.0242L180.44 66.7804ZM176.59 65.1304H176.165V65.4106L176.423 65.521L176.59 65.1304ZM176.59 49.1804L176.681 48.765L176.165 48.6533V49.1804H176.59ZM181.155 50.1704L181.065 50.5857L181.11 50.5954H181.155V50.1704ZM215.585 50.1704V50.5954H215.631L215.676 50.5857L215.585 50.1704ZM220.15 49.1804H220.575V48.6533L220.06 48.765L220.15 49.1804ZM220.15 65.1304L219.983 64.7398L216.133 66.3898L216.3 66.7804L216.468 67.171L220.318 65.521L220.15 65.1304ZM216.3 66.7804L216.649 66.5366L208.674 55.1516L208.325 55.3954L207.977 55.6392L215.952 67.0242L216.3 66.7804ZM208.325 55.3954V54.9704H204.2V55.3954V55.8204H208.325V55.3954ZM204.2 55.3954H203.775V87.5154H204.2H204.625V55.3954H204.2ZM204.2 87.5154L204.103 87.9291L210.428 89.4141L210.525 89.0004L210.623 88.5866L204.298 87.1016L204.2 87.5154ZM210.525 89.0004L210.145 88.8103L207.945 93.2103L208.325 93.4004L208.706 93.5905L210.906 89.1905L210.525 89.0004ZM208.325 93.4004V92.9754H187.205V93.4004V93.8254H208.325V93.4004ZM187.205 93.4004H187.63V89.4954H187.205H186.78V93.4004H187.205ZM187.205 89.4954L187.468 89.8293L192.638 85.7593L192.375 85.4254L192.113 85.0915L186.943 89.1615L187.205 89.4954ZM192.375 85.4254H192.8V55.3954H192.375H191.95V85.4254H192.375ZM192.375 55.3954V54.9704H188.415V55.3954V55.8204H192.375V55.3954ZM188.415 55.3954L188.067 55.1516L180.092 66.5366L180.44 66.7804L180.789 67.0242L188.764 55.6392L188.415 55.3954ZM180.44 66.7804L180.608 66.3898L176.758 64.7398L176.59 65.1304L176.423 65.521L180.273 67.171L180.44 66.7804ZM176.59 65.1304H177.015V49.1804H176.59H176.165V65.1304H176.59ZM176.59 49.1804L176.5 49.5957L181.065 50.5857L181.155 50.1704L181.245 49.755L176.681 48.765L176.59 49.1804ZM181.155 50.1704V50.5954H215.585V50.1704V49.7454H181.155V50.1704ZM215.585 50.1704L215.676 50.5857L220.241 49.5957L220.15 49.1804L220.06 48.765L215.495 49.755L215.585 50.1704ZM220.15 49.1804H219.725V65.1304H220.15H220.575V49.1804H220.15ZM259.781 93.4004L259.871 92.985L259.827 92.9754H259.781V93.4004ZM223.976 93.4004H223.551V93.8254H223.976V93.4004ZM223.976 89.4954L223.713 89.1615L223.551 89.2891V89.4954H223.976ZM229.146 85.4254L229.409 85.7593L229.571 85.6317V85.4254H229.146ZM229.146 56.2754H229.571V55.9505L229.258 55.8653L229.146 56.2754ZM222.876 54.5704L222.496 54.3803L222.264 54.8444L222.765 54.9805L222.876 54.5704ZM225.076 50.1704V49.7454H224.814L224.696 49.9803L225.076 50.1704ZM259.231 50.1704V50.5954H259.277L259.321 50.5857L259.231 50.1704ZM263.796 49.1804H264.221V48.6533L263.706 48.765L263.796 49.1804ZM263.796 64.0304L263.964 64.421L264.221 64.3106V64.0304H263.796ZM259.946 65.6804L259.594 65.9179L259.79 66.2096L260.114 66.071L259.946 65.6804ZM253.016 55.3954L253.369 55.1579L253.242 54.9704H253.016V55.3954ZM240.971 55.3954V54.9704H240.546V55.3954H240.971ZM240.971 68.7054H240.546V69.1304H240.971V68.7054ZM246.306 68.7054V69.1304H246.526L246.653 68.9511L246.306 68.7054ZM250.321 63.0404V62.6154H250.102L249.975 62.7946L250.321 63.0404ZM254.226 63.0404H254.651V62.6154H254.226V63.0404ZM254.226 78.6604L254.416 79.0405L254.651 78.9231V78.6604H254.226ZM249.826 80.8604L249.451 81.0599L249.646 81.4259L250.016 81.2405L249.826 80.8604ZM246.141 73.9304L246.517 73.7309L246.397 73.5054H246.141V73.9304ZM240.971 73.9304V73.5054H240.546V73.9304H240.971ZM240.971 88.1754H240.546V88.6004H240.971V88.1754ZM252.521 88.1754V88.6004H252.743L252.869 88.4192L252.521 88.1754ZM260.496 76.7904L260.664 76.3997L260.346 76.2637L260.148 76.5466L260.496 76.7904ZM264.346 78.4404H264.771V78.1601L264.514 78.0498L264.346 78.4404ZM264.346 94.3904L264.256 94.8057L264.771 94.9174V94.3904H264.346ZM259.781 93.4004V92.9754H223.976V93.4004V93.8254H259.781V93.4004ZM223.976 93.4004H224.401V89.4954H223.976H223.551V93.4004H223.976ZM223.976 89.4954L224.239 89.8293L229.409 85.7593L229.146 85.4254L228.883 85.0915L223.713 89.1615L223.976 89.4954ZM229.146 85.4254H229.571V56.2754H229.146H228.721V85.4254H229.146ZM229.146 56.2754L229.258 55.8653L222.988 54.1603L222.876 54.5704L222.765 54.9805L229.035 56.6855L229.146 56.2754ZM222.876 54.5704L223.257 54.7605L225.456 50.3605L225.076 50.1704L224.696 49.9803L222.496 54.3803L222.876 54.5704ZM225.076 50.1704V50.5954H259.231V50.1704V49.7454H225.076V50.1704ZM259.231 50.1704L259.321 50.5857L263.886 49.5957L263.796 49.1804L263.706 48.765L259.141 49.755L259.231 50.1704ZM263.796 49.1804H263.371V64.0304H263.796H264.221V49.1804H263.796ZM263.796 64.0304L263.629 63.6398L259.779 65.2898L259.946 65.6804L260.114 66.071L263.964 64.421L263.796 64.0304ZM259.946 65.6804L260.299 65.4429L253.369 55.1579L253.016 55.3954L252.664 55.6329L259.594 65.9179L259.946 65.6804ZM253.016 55.3954V54.9704H240.971V55.3954V55.8204H253.016V55.3954ZM240.971 55.3954H240.546V68.7054H240.971H241.396V55.3954H240.971ZM240.971 68.7054V69.1304H246.306V68.7054V68.2804H240.971V68.7054ZM246.306 68.7054L246.653 68.9511L250.668 63.2861L250.321 63.0404L249.975 62.7946L245.96 68.4596L246.306 68.7054ZM250.321 63.0404V63.4654H254.226V63.0404V62.6154H250.321V63.0404ZM254.226 63.0404H253.801V78.6604H254.226H254.651V63.0404H254.226ZM254.226 78.6604L254.036 78.2803L249.636 80.4803L249.826 80.8604L250.016 81.2405L254.416 79.0405L254.226 78.6604ZM249.826 80.8604L250.202 80.6609L246.517 73.7309L246.141 73.9304L245.766 74.1299L249.451 81.0599L249.826 80.8604ZM246.141 73.9304V73.5054H240.971V73.9304V74.3554H246.141V73.9304ZM240.971 73.9304H240.546V88.1754H240.971H241.396V73.9304H240.971ZM240.971 88.1754V88.6004H252.521V88.1754V87.7504H240.971V88.1754ZM252.521 88.1754L252.869 88.4192L260.844 77.0342L260.496 76.7904L260.148 76.5466L252.173 87.9316L252.521 88.1754ZM260.496 76.7904L260.329 77.181L264.179 78.831L264.346 78.4404L264.514 78.0498L260.664 76.3997L260.496 76.7904ZM264.346 78.4404H263.921V94.3904H264.346H264.771V78.4404H264.346ZM264.346 94.3904L264.436 93.975L259.871 92.985L259.781 93.4004L259.691 93.8157L264.256 94.8057L264.346 94.3904ZM313.308 93.4004V93.8254H313.571L313.689 93.5905L313.308 93.4004ZM300.328 93.4004L299.951 93.5958L300.07 93.8254H300.328V93.4004ZM290.648 74.7004L291.026 74.505L290.968 74.3936L290.859 74.3314L290.648 74.7004ZM288.338 73.3804L287.958 73.1903L287.778 73.5499L288.128 73.7494L288.338 73.3804ZM289.988 70.0804V69.6554H289.726L289.608 69.8903L289.988 70.0804ZM296.148 68.3204L296.478 68.5884L296.482 68.5834L296.148 68.3204ZM295.708 57.5404L295.38 57.811L295.388 57.8197L295.708 57.5404ZM286.303 56.6054L286.065 56.2534L285.878 56.3798V56.6054H286.303ZM286.303 87.2954H285.878V87.6237L286.196 87.7066L286.303 87.2954ZM292.628 88.9454L293.009 89.1355L293.243 88.6665L292.736 88.5342L292.628 88.9454ZM290.428 93.3454V93.7704H290.691L290.809 93.5355L290.428 93.3454ZM269.308 93.3454H268.883V93.7704H269.308V93.3454ZM269.308 89.4404L269.029 89.1201L268.883 89.2472V89.4404H269.308ZM274.478 84.9304L274.758 85.2507L274.903 85.1236V84.9304H274.478ZM274.478 56.2204H274.903V55.8928L274.587 55.8094L274.478 56.2204ZM268.208 54.5704L267.828 54.3803L267.594 54.8483L268.1 54.9814L268.208 54.5704ZM270.408 50.1704V49.7454H270.146L270.028 49.9803L270.408 50.1704ZM290.318 49.8404L290.29 49.4163L290.287 49.4165L290.318 49.8404ZM303.133 51.1604L302.961 51.5488L302.968 51.552L303.133 51.1604ZM308.578 55.2854L308.235 55.5358V55.5358L308.578 55.2854ZM307.203 68.1554L306.908 67.8498L306.905 67.8523L307.203 68.1554ZM299.063 73.1604L298.916 72.7619L297.668 73.2244L298.953 73.5707L299.063 73.1604ZM303.958 74.4804L304.335 74.2842L304.249 74.1186L304.069 74.07L303.958 74.4804ZM310.283 86.6354L309.906 86.8316L309.974 86.962L310.108 87.0226L310.283 86.6354ZM315.508 89.0004L315.889 89.1905L316.086 88.7954L315.684 88.6132L315.508 89.0004ZM313.308 93.4004V92.9754H300.328V93.4004V93.8254H313.308V93.4004ZM300.328 93.4004L300.706 93.205L291.026 74.505L290.648 74.7004L290.271 74.8958L299.951 93.5958L300.328 93.4004ZM290.648 74.7004L290.859 74.3314L288.549 73.0114L288.338 73.3804L288.128 73.7494L290.438 75.0694L290.648 74.7004ZM288.338 73.3804L288.719 73.5705L290.369 70.2705L289.988 70.0804L289.608 69.8903L287.958 73.1903L288.338 73.3804ZM289.988 70.0804V70.5054H292.243V70.0804V69.6554H289.988V70.0804ZM292.243 70.0804V70.5054C294.008 70.5054 295.436 69.871 296.478 68.5884L296.148 68.3204L295.819 68.0524C294.954 69.1165 293.779 69.6554 292.243 69.6554V70.0804ZM296.148 68.3204L296.482 68.5834C297.514 67.2733 298.003 65.4813 298.003 63.2604H297.578H297.153C297.153 65.3661 296.689 66.9474 295.815 68.0574L296.148 68.3204ZM297.578 63.2604H298.003C298.003 60.8016 297.359 58.7868 296.029 57.2611L295.708 57.5404L295.388 57.8197C296.551 59.154 297.153 60.9525 297.153 63.2604H297.578ZM295.708 57.5404L296.036 57.2699C294.726 55.6812 292.794 54.9154 290.318 54.9154V55.3404V55.7654C292.61 55.7654 294.271 56.4662 295.381 57.8109L295.708 57.5404ZM290.318 55.3404V54.9154C288.799 54.9154 287.378 55.3651 286.065 56.2534L286.303 56.6054L286.542 56.9574C287.722 56.159 288.978 55.7654 290.318 55.7654V55.3404ZM286.303 56.6054H285.878V87.2954H286.303H286.728V56.6054H286.303ZM286.303 87.2954L286.196 87.7066L292.521 89.3566L292.628 88.9454L292.736 88.5342L286.411 86.8842L286.303 87.2954ZM292.628 88.9454L292.248 88.7553L290.048 93.1553L290.428 93.3454L290.809 93.5355L293.009 89.1355L292.628 88.9454ZM290.428 93.3454V92.9204H269.308V93.3454V93.7704H290.428V93.3454ZM269.308 93.3454H269.733V89.4404H269.308H268.883V93.3454H269.308ZM269.308 89.4404L269.588 89.7607L274.758 85.2507L274.478 84.9304L274.199 84.6101L269.029 89.1201L269.308 89.4404ZM274.478 84.9304H274.903V56.2204H274.478H274.053V84.9304H274.478ZM274.478 56.2204L274.587 55.8094L268.317 54.1594L268.208 54.5704L268.1 54.9814L274.37 56.6314L274.478 56.2204ZM268.208 54.5704L268.589 54.7605L270.789 50.3605L270.408 50.1704L270.028 49.9803L267.828 54.3803L268.208 54.5704ZM270.408 50.1704V50.5954H281.188V50.1704V49.7454H270.408V50.1704ZM281.188 50.1704V50.5954C284.279 50.5954 287.332 50.485 290.349 50.2643L290.318 49.8404L290.287 49.4165C287.291 49.6357 284.258 49.7454 281.188 49.7454V50.1704ZM290.318 49.8404L290.347 50.2644C292.545 50.1179 294.147 50.0454 295.158 50.0454V49.6204V49.1954C294.117 49.1954 292.491 49.2696 290.29 49.4163L290.318 49.8404ZM295.158 49.6204V50.0454C298.117 50.0454 300.714 50.5504 302.961 51.5488L303.133 51.1604L303.306 50.772C300.932 49.7171 298.213 49.1954 295.158 49.1954V49.6204ZM303.133 51.1604L302.968 51.552C305.256 52.5171 307.004 53.848 308.235 55.5358L308.578 55.2854L308.922 55.035C307.586 53.2027 305.704 51.7837 303.299 50.7688L303.133 51.1604ZM308.578 55.2854L308.235 55.5358C309.465 57.2223 310.078 59.1144 310.078 61.2254H310.503H310.928C310.928 58.9364 310.259 56.8685 308.922 55.035L308.578 55.2854ZM310.503 61.2254H310.078C310.078 63.5783 309.045 65.7838 306.908 67.8498L307.203 68.1554L307.499 68.461C309.762 66.2737 310.928 63.8592 310.928 61.2254H310.503ZM307.203 68.1554L306.905 67.8523C304.791 69.9312 302.131 71.5697 298.916 72.7619L299.063 73.1604L299.211 73.5589C302.522 72.3311 305.289 70.6329 307.501 68.4585L307.203 68.1554ZM299.063 73.1604L298.953 73.5707L303.848 74.8907L303.958 74.4804L304.069 74.07L299.174 72.75L299.063 73.1604ZM303.958 74.4804L303.581 74.6766L309.906 86.8316L310.283 86.6354L310.66 86.4392L304.335 74.2842L303.958 74.4804ZM310.283 86.6354L310.108 87.0226L315.333 89.3876L315.508 89.0004L315.684 88.6132L310.459 86.2482L310.283 86.6354ZM315.508 89.0004L315.128 88.8103L312.928 93.2103L313.308 93.4004L313.689 93.5905L315.889 89.1905L315.508 89.0004ZM365.18 93.4004V93.8254H365.443L365.56 93.5905L365.18 93.4004ZM342.41 93.4004H341.985V93.8254H342.41V93.4004ZM342.41 89.4954L342.213 89.1185L341.985 89.2376V89.4954H342.41ZM348.955 86.0854L349.151 86.4623L349.494 86.2839L349.349 85.9259L348.955 86.0854ZM346.15 79.1554L346.544 78.9959L346.436 78.7304H346.15V79.1554ZM330.09 79.1554V78.7304H329.803L329.695 78.9969L330.09 79.1554ZM327.835 84.7654L327.441 84.6069L327.3 84.9563L327.63 85.1378L327.835 84.7654ZM335.535 89.0004L335.915 89.1905L336.098 88.8249L335.74 88.628L335.535 89.0004ZM333.335 93.4004V93.8254H333.598L333.715 93.5905L333.335 93.4004ZM314.965 93.4004H314.54V93.8254H314.965V93.4004ZM314.965 89.4954L314.711 89.1543L314.54 89.2818V89.4954H314.965ZM321.4 84.7104L321.653 85.0514L321.749 84.9801L321.794 84.8691L321.4 84.7104ZM334.6 51.9304L334.501 51.517L334.288 51.5679L334.206 51.7716L334.6 51.9304ZM346.37 49.1254L346.763 48.9642L346.625 48.6277L346.271 48.712L346.37 49.1254ZM361.66 86.4154L361.267 86.5766L361.331 86.7331L361.485 86.8027L361.66 86.4154ZM367.38 89.0004L367.76 89.1905L367.958 88.7951L367.555 88.6131L367.38 89.0004ZM338.01 59.1904L338.404 59.0303L338.006 58.0533L337.615 59.0328L338.01 59.1904ZM332.125 73.9304L331.73 73.7728L331.498 74.3554H332.125V73.9304ZM344.005 73.9304V74.3554H344.637L344.399 73.7703L344.005 73.9304ZM365.18 93.4004V92.9754H342.41V93.4004V93.8254H365.18V93.4004ZM342.41 93.4004H342.835V89.4954H342.41H341.985V93.4004H342.41ZM342.41 89.4954L342.606 89.8723L349.151 86.4623L348.955 86.0854L348.758 85.7085L342.213 89.1185L342.41 89.4954ZM348.955 86.0854L349.349 85.9259L346.544 78.9959L346.15 79.1554L345.756 79.3148L348.561 86.2449L348.955 86.0854ZM346.15 79.1554V78.7304H330.09V79.1554V79.5804H346.15V79.1554ZM330.09 79.1554L329.695 78.9969L327.441 84.6069L327.835 84.7654L328.229 84.9239L330.484 79.3139L330.09 79.1554ZM327.835 84.7654L327.63 85.1378L335.33 89.3728L335.535 89.0004L335.74 88.628L328.04 84.393L327.835 84.7654ZM335.535 89.0004L335.155 88.8103L332.955 93.2103L333.335 93.4004L333.715 93.5905L335.915 89.1905L335.535 89.0004ZM333.335 93.4004V92.9754H314.965V93.4004V93.8254H333.335V93.4004ZM314.965 93.4004H315.39V89.4954H314.965H314.54V93.4004H314.965ZM314.965 89.4954L315.218 89.8364L321.653 85.0514L321.4 84.7104L321.146 84.3693L314.711 89.1543L314.965 89.4954ZM321.4 84.7104L321.794 84.8691L334.994 52.0891L334.6 51.9304L334.206 51.7716L321.006 84.5516L321.4 84.7104ZM334.6 51.9304L334.698 52.3438L346.468 49.5388L346.37 49.1254L346.271 48.712L334.501 51.517L334.6 51.9304ZM346.37 49.1254L345.977 49.2866L361.267 86.5766L361.66 86.4154L362.053 86.2542L346.763 48.9642L346.37 49.1254ZM361.66 86.4154L361.485 86.8027L367.205 89.3877L367.38 89.0004L367.555 88.6131L361.835 86.0281L361.66 86.4154ZM367.38 89.0004L367 88.8103L364.8 93.2103L365.18 93.4004L365.56 93.5905L367.76 89.1905L367.38 89.0004ZM338.01 59.1904L337.615 59.0328L331.73 73.7728L332.125 73.9304L332.52 74.088L338.405 59.348L338.01 59.1904ZM332.125 73.9304V74.3554H344.005V73.9304V73.5054H332.125V73.9304ZM344.005 73.9304L344.399 73.7703L338.404 59.0303L338.01 59.1904L337.616 59.3505L343.611 74.0905L344.005 73.9304Z" fill="#FFEDA4" fill-opacity="0.59"/>
</g>
<defs>
<filter id="filter0_di_721_611" x="0.599453" y="48.6279" width="371.358" height="52.9854" filterUnits="userSpaceOnUse" color-interpolation-filters="sRGB">
<feFlood flood-opacity="0" result="BackgroundImageFix"/>
<feColorMatrix in="SourceAlpha" type="matrix" values="0 0 0 0 0 0 0 0 0 0 0 0 0 0 0 0 0 0 127 0" result="hardAlpha"/>
<feOffset dx="1.33" dy="4"/>
<feGaussianBlur stdDeviation="1.335"/>
<feComposite in2="hardAlpha" operator="out"/>
<feColorMatrix type="matrix" values="0 0 0 0 0 0 0 0 0 0 0 0 0 0 0 0 0 0 0.5 0"/>
<feBlend mode="normal" in2="BackgroundImageFix" result="effect1_dropShadow_721_611"/>
<feBlend mode="normal" in="SourceGraphic" in2="effect1_dropShadow_721_611" result="shape"/>
<feColorMatrix in="SourceAlpha" type="matrix" values="0 0 0 0 0 0 0 0 0 0 0 0 0 0 0 0 0 0 127 0" result="hardAlpha"/>
<feOffset dx="1.33" dy="3.34"/>
<feGaussianBlur stdDeviation="1.335"/>
<feComposite in2="hardAlpha" operator="arithmetic" k2="-1" k3="1"/>
<feColorMatrix type="matrix" values="0 0 0 0 0 0 0 0 0 0 0 0 0 0 0 0 0 0 0.5 0"/>
<feBlend mode="normal" in2="shape" result="effect2_innerShadow_721_611"/>
</filter>
<linearGradient id="paint0_linear_721_611" x1="187.666" y1="-107.473" x2="174.517" y2="157.421" gradientUnits="userSpaceOnUse">
<stop stop-color="#E9C78A"/>
<stop offset="1" stop-color="#594B31"/>
</linearGradient>
</defs>
</svg>
